<svg viewBox="0 0 1024 1176.463" xmlns="http://www.w3.org/2000/svg"><path d="M643.214 557.923c-.282 11.45-9.63 20.623-21.12 20.623-.154 0-.307-.002-.46-.005H549.49c-.13.004-.282.005-.435.005-11.49 0-20.84-9.173-21.122-20.597V405.154c.27-12.474 10.447-22.48 22.96-22.48s22.69 10.007 22.96 22.455v132.174h47.8c.13-.003.283-.005.436-.005 11.49 0 20.84 9.172 21.123 20.595v.026zm-236.156-55.33l22.464-63.827 22.464 63.826zm52.45-97.702c-4.033-12.97-15.927-22.223-29.983-22.223-14.046 0-25.933 9.24-29.914 21.975l-.06.222-53.803 141.62c-6.83 21.213-.868 29.08 5.33 31.942 4.184 1.96 9.084 3.103 14.25 3.103h.053-.003c.685.09 1.477.14 2.28.14 7.127 0 13.31-4.04 16.378-9.958l.048-.103 11.145-29.18 68.588.003 11.136 29.16c3.12 6.026 9.308 10.074 16.442 10.074.803 0 1.593-.05 2.37-.15l-.093.01h.044c5.17 0 10.072-1.14 14.47-3.184l-.212.088c6.202-2.85 12.16-10.72 5.312-31.986zm333.91 140.052c2.76 3.69 4.418 8.345 4.418 13.385 0 12.422-10.07 22.492-22.492 22.492-7.238 0-13.677-3.42-17.79-8.73l-.04-.05-52.754-69.895-7.808 7.808v49.078c-.163 12.302-10.172 22.21-22.496 22.21-12.32 0-22.327-9.902-22.496-22.18V405.155c0-12.423 10.07-22.493 22.493-22.493s22.493 10.07 22.493 22.493v48.35l62.758-62.76c3.15-3.096 7.473-5.007 12.242-5.007h.247-.012c11.665.32 21.12 9.36 22.09 20.82l.005.083c.037.425.057.92.057 1.418 0 4.784-1.916 9.12-5.023 12.282l-51.255 51.25zm-439.39-118.23h-35.097v133.632c-.566 11.984-10.42 21.485-22.492 21.485s-21.926-9.502-22.492-21.435l-.002-.05V426.71h-35.096c-12.164 0-22.026-9.86-22.026-22.026s9.86-22.026 22.026-22.026h115.18c12.165 0 22.027 9.86 22.027 22.026s-9.86 22.026-22.026 22.026zM512 781.922h-.315c-24.316 0-48.222-1.757-71.597-5.15l2.664.316c-22.498 15.855-152.476 107.156-164.745 108.868-1.19.444-2.566.7-4.002.7-1.936 0-3.763-.467-5.374-1.295l.067.032c-4.278-2.52-3.503-9.126-3.503-9.126 1.288-8.79 33.694-120.697 39.668-141.29-103.776-44.637-176.426-143.35-182.72-259.707l-.032-.76c0-169.78 174.558-307.412 389.888-307.412S901.886 304.73 901.886 474.51 727.328 781.92 511.998 781.92zM916.883 32.138H107.116h-.003c-41.408 0-74.975 33.568-74.975 74.975V916.886c0 41.408 33.568 74.975 74.975 74.975H916.887c41.407 0 74.975-33.566 74.975-74.974V107.115v-.003c0-41.408-33.568-74.975-74.975-74.975h-.003z"/></svg>